PathFileType	4	(X/Y/Z)	DARI_DATA/Captury_Subj2_bilateral_squat03.trc
DataRate	CameraRate	NumFrames	NumMarkers	Units	OrigDataRate	OrigDataStartFrame	OrigNumFrames
60	60	4	47	mm	60.00239944458008	218	249
Frame#	Time		LeftUpLeg_		RightUpLeg_		LeftLeg_		RightLeg_		LeftFoot_		RightFoot_		LeftToeBase_		RightToeBase_		Knee_Lateral_r		Knee_Lateral_l		Ankle_Lateral_r		Ankle_Lateral_l		LeftArm_		LeftForeArm_		LeftHand_		LeftHandEE		RightArm_		RightForeArm_		RightHand_		RightHandEE		Spine_		Spine1_		Spine2_		Spine3_		Spine4_		Spine5_		Spine_x		Spine_y		Spine_z		RASI		LASI		RIPS		LIPS		RTHI		LTHI		RTIB		LTIB		RTOE		LTOE		RHEE		LHEE		RHipAngles		LHipAngles		RKneeAngles		LKneeAngles		RAnkleAngles		LAnkleAngles
			X1	Y1	Z1	X2	Y2	Z2	X3	Y3	Z3	X4	Y4	Z4	X5	Y5	Z5	X6	Y6	Z6	X7	Y7	Z7	X8	Y8	Z8	X9	Y9	Z9	X10	Y10	Z10	X11	Y11	Z11	X12	Y12	Z12	X13	Y13	Z13	X14	Y14	Z14	X15	Y15	Z15	X16	Y16	Z16	X17	Y17	Z17	X18	Y18	Z18	X19	Y19	Z19	X20	Y20	Z20	X21	Y21	Z21	X22	Y22	Z22	X23	Y23	Z23	X24	Y24	Z24	X25	Y25	Z25	X26	Y26	Z26	X27	Y27	Z27	X28	Y28	Z28	X29	Y29	Z29	X30	Y30	Z30	X31	Y31	Z31	X32	Y32	Z32	X33	Y33	Z33	X34	Y34	Z34	X35	Y35	Z35	X36	Y36	Z36	X37	Y37	Z37	X38	Y38	Z38	X39	Y39	Z39	X40	Y40	Z40	X41	Y41	Z41	X42	Y42	Z42	X43	Y43	Z43	X44	Y44	Z44	X45	Y45	Z45	X46	Y46	Z46	X47	Y47	Z47

218	3.61667	10.30975	870.07355	0.90689	178.98030	867.99707	6.57765	-32.49520	464.09085	-19.91901	230.64197	463.53806	-22.26557	-78.61856	90.15298	-0.36889	286.08319	91.20569	2.91389	-96.38269	22.86076	-108.76318	305.03012	21.69449	-103.86783	277.42264	467.04517	-21.53992	-79.32259	466.68781	-21.22652	332.13153	99.77929	21.87544	-125.67786	97.14945	16.65955	-35.18261	1364.86890	-12.61923	-99.22886	1313.73828	-262.67773	-90.62160	1305.16492	-488.09506	-90.98788	1305.97852	-570.47571	236.39410	1351.75476	-11.92458	283.55936	1293.93823	-264.26996	280.25031	1295.19922	-489.98663	278.26855	1300.97473	-572.14551	95.26588	962.49658	19.49855	97.04127	1057.88770	3.28137	97.40424	1126.36072	16.39032	96.73194	1208.06946	53.46139	98.49397	1340.19019	55.40071	-0.00000	0.00000	-0.00000	142.68256	961.91284	21.09272	95.89975	1009.91602	18.00853	93.69099	964.00696	66.89539	240.91530	928.66882	-88.57735	-43.58467	932.17126	-98.14232	131.87396	934.48419	50.10600	56.00729	935.41815	47.55534	269.00385	684.72235	-2.84710	-75.78312	684.87811	-7.65806	293.35156	299.86011	-24.91840	-94.18476	242.64273	-28.52805	311.41800	19.15669	-176.16397	-99.93067	13.93151	-180.74692	288.79660	37.68794	63.28194	-89.68575	36.83734	59.21947	-5.06824	4.92494	-1.30464	-3.67820	2.47735	0.24318	-2.05899	1.13374	-0.09232	-0.11645	0.67137	-0.05850	14.00691	4.28112	1.85884	13.60492	4.46560	8.37748
219	3.63333	9.71562	870.18683	-0.79511	178.38493	867.60938	4.70357	-32.68037	464.10934	-20.58099	230.29523	463.06802	-22.48867	-78.47617	90.15714	-0.54210	286.08698	90.80734	2.97225	-96.46696	22.81210	-108.86620	305.06992	21.42860	-103.88918	277.07468	466.61414	-21.88455	-79.50983	466.65652	-21.91148	332.18274	99.40232	21.80846	-125.54918	97.12234	16.46122	-35.17528	1364.62903	-11.92325	-99.73311	1313.91870	-261.93576	-91.94911	1305.04456	-487.37137	-92.37885	1305.11243	-569.75568	236.23880	1351.48840	-11.50289	282.87064	1293.97070	-264.01569	280.20074	1294.42786	-489.74390	278.29901	1299.58875	-571.94556	94.94193	962.24567	18.35817	96.91947	1057.77686	2.70481	97.39793	1126.22925	16.17756	96.82702	1207.81580	53.63266	98.59799	1339.97705	56.13023	-0.00000	0.00000	-0.00000	142.35825	961.52112	19.90396	95.70451	1009.67236	17.19668	93.41454	963.43127	65.76581	240.39908	928.77057	-90.08588	-44.09882	933.11792	-99.36061	131.50101	933.92139	48.73627	55.63490	935.08063	46.26302	268.52921	684.36438	-4.12432	-76.19097	684.88464	-8.90872	293.12195	299.43475	-25.12052	-94.16810	242.59457	-28.91383	311.39346	18.99962	-176.19473	-100.11749	13.94094	-180.85202	288.95560	37.24036	63.28943	-89.48277	36.88537	59.09672	-4.42087	5.14352	-1.38390	-3.13920	2.24330	0.17089	-1.87353	1.13020	-0.10200	-0.04538	0.67877	-0.05703	13.89542	4.40152	1.89573	13.56702	4.59697	8.44439
220	3.65000	9.58314	870.07050	-1.69286	178.24265	867.49438	4.09876	-32.68884	463.95248	-20.90509	230.32207	462.98962	-23.31527	-78.60306	90.02646	-0.64944	286.08548	90.78302	2.98585	-96.53805	22.74734	-109.02370	305.26303	21.45130	-103.87135	277.10022	466.55661	-22.73309	-79.51402	466.49030	-22.39479	332.19260	99.37167	21.79711	-125.72993	96.99148	16.20405	-35.29410	1364.58179	-11.61445	-100.60641	1314.11572	-261.48038	-93.22041	1305.08105	-486.92297	-93.46848	1305.47046	-569.30713	236.07335	1351.08484	-11.38272	282.35718	1294.10425	-264.08124	280.01947	1294.25952	-489.81351	278.26035	1298.75757	-572.05725	94.75793	962.04651	18.07734	96.75533	1057.62280	2.72845	97.20998	1126.04382	16.34046	96.57932	1207.59265	53.86773	98.37175	1339.74927	56.38867	-0.00000	0.00000	-0.00000	142.17148	961.32233	19.70548	95.51404	1009.47858	17.15556	93.14437	962.99359	65.48747	240.41745	929.14178	-90.26949	-44.06390	933.48682	-100.03833	131.26697	933.57617	48.37900	55.40528	934.73486	45.77397	268.46527	684.29443	-4.86329	-76.26952	684.74152	-9.76464	293.13171	299.34442	-25.59059	-94.18306	242.43871	-29.21739	311.66425	19.11794	-176.17320	-100.11501	13.90886	-181.01721	288.93576	37.20293	63.29226	-89.73372	36.74008	58.95328	-4.15886	5.16125	-1.51246	-2.75210	2.22935	0.08094	-2.03404	1.10058	-0.10385	-0.00112	0.69731	-0.04587	13.75336	4.50931	1.93273	13.49365	4.71993	8.47210
221	3.66667	9.50018	869.79633	-2.20942	178.16808	867.19458	3.32167	-32.65806	463.65808	-21.24193	230.08444	462.65277	-23.85324	-78.55831	89.75467	-0.54325	285.94849	90.51868	3.24748	-96.69496	22.52580	-108.91515	304.89090	21.15870	-103.63332	276.86505	466.21509	-23.47712	-79.48263	466.18381	-22.77135	332.13571	99.11699	21.85674	-125.69777	96.71076	16.27873	-35.56067	1364.07507	-11.35661	-101.69067	1314.66003	-261.21756	-94.35018	1305.96399	-486.67499	-93.87161	1305.64612	-569.05847	235.89787	1350.61389	-11.41081	281.95215	1294.41699	-264.32666	279.62216	1294.63269	-490.05902	277.92459	1298.47449	-572.33734	94.71317	961.72748	17.60497	96.69237	1057.23706	2.41223	97.17525	1125.54370	16.12600	96.63042	1206.94421	53.76658	98.40137	1339.00549	56.45827	-0.00000	0.00000	-0.00000	142.12909	960.99609	19.15987	95.47218	1009.16113	16.77145	93.17156	962.58533	65.01920	240.20541	929.01428	-91.02438	-44.29011	933.40265	-100.35378	131.26553	933.19690	47.79754	55.40007	934.36713	45.30970	268.33115	683.97418	-5.81981	-76.30114	684.44238	-10.25375	292.88174	299.00021	-25.93255	-94.13180	242.12971	-29.31238	311.08536	18.73821	-175.95035	-100.36980	13.73309	-180.90933	289.04858	36.97189	63.57115	-89.65749	36.45918	59.05718	-3.98292	5.15756	-1.66857	-2.61664	2.20202	-0.05275	-2.12719	1.10682	-0.09661	-0.04391	0.70604	-0.03586	13.62455	4.59281	1.98765	13.40985	4.84055	8.50459
